{"title":"Big tits euro blonde hard fucking[VPSR]","uid":10748860,"size":134175017,"categoryP":"porn","categoryS":"other","magnet":"?xt=urn:btih:f23d1c4f86f987bad1d1ec5f3c8baeb31bb4a749&amp;dn=Big+tits+euro+blonde+hard+fucking%5BVPSR%5D&amp;tr=udp%3A%2F%2Ftracker.openbittorrent.com%3A80&amp;tr=udp%3A%2F%2Fopen.demonii.com%3A1337&amp;tr=udp%3A%2F%2Ftracker.coppersurfer.tk%3A6969&amp;tr=udp%3A%2F%2Fexodus.desync.com%3A6969","seeders":1,"leechers":0,"uploader":"vpsr","files":1,"time":1407853297,"description":"Big tits euro blonde hard fucking[VPSR]\n\n &lt;a href=&quot;\nhttp://s25.postimg.org/ba0wekom7/image.jpg&quot; rel=&quot;nofollow&quot; target=&quot;_NEW&quot;&gt;\nhttp://s25.postimg.org/ba0wekom7/image.jpg&lt;/a&gt;\n\n &lt;a href=&quot;\nhttp://s25.postimg.org/72645tn6n/Big_tits_euro_blonde_hard_fucking_VPSR.jpg&quot; rel=&quot;nofollow&quot; target=&quot;_NEW&quot;&gt;\nhttp://s25.postimg.org/72645tn6n/Big_tits_euro_blonde_hard_fucking_VPSR.jpg&lt;/a&gt;\n\nFILE INFO\n\n\nGeneral\nComplete name                            : C:Big tits euro blonde hard fucking[VPSR].flv\nFormat                                   : Flash Video\nFile size                                : 128 MiB\nDuration                                 : 31mn 5s\nOverall bit rate                         : 575 Kbps\nTagged date                              : UTC 2014-08-11 04:40:26\nTagging application                      : flvtool++ \n\nVideo\nFormat                                   : AVC\nFormat/Info                              : Advanced Video Codec\nFormat profile                           : &lt;a class=&quot;__cf_email__&quot; href=&quot;/cdn-cgi/l/email-protection&quot; data-cfemail=&quot;7b33121c133b3749554b&quot;&gt;[email&amp;#160;protected]&lt;/a&gt;&lt;script cf-hash='f9e31' type=&quot;text/javascript&quot;&gt;\n/* &lt;![CDATA[ */!function(){try{var t=&quot;currentScript&quot;in document?document.currentScript:function(){for(var t=document.getElementsByTagName(&quot;script&quot;),e=t.length;e--;)if(t[e].getAttribute(&quot;cf-hash&quot;))return t[e]}();if(t&amp;&amp;t.previousSibling){var e,r,n,i,c=t.previousSibling,a=c.getAttribute(&quot;data-cfemail&quot;);if(a){for(e=&quot;&quot;,r=parseInt(a.substr(0,2),16),n=2;a.length-n;n+=2)i=parseInt(a.substr(n,2),16)^r,e+=String.fromCharCode(i);e=document.createTextNode(e),c.parentNode.replaceChild(e,c)}}}catch(u){}}();/* ]]&gt; */&lt;/script&gt;\nFormat settings, CABAC                   : Yes\nFormat settings, ReFrames                : 4 frames\nCodec ID                                 : 7\nDuration                                 : 31mn 5s\nBit rate                                 : 512 Kbps\nWidth                                    : 416 pixels\nHeight                                   : 238 pixels\nDisplay aspect ratio                     : 16:9\nFrame rate mode                          : Constant\nFrame rate                               : 29.970 fps\nColor space                              : YUV\nChroma subsampling                       : 4:2:0\nBit depth                                : 8 bits\nScan type                                : Progressive\nBits/(Pixel*Frame)                       : 0.173\nStream size                              : 114 MiB (89%)\nWriting library                          : x264 core 125\n\nAudio\nFormat                                   : AAC\nFormat/Info                              : Advanced Audio Codec\nFormat profile                           : LC\nCodec ID                                 : 10\nDuration                                 : 31mn 5s\nBit rate                                 : 55.9 Kbps\nChannel(s)                               : 2 channels\nChannel positions                        : Front: L R\nSampling rate                            : 22.05 KHz\nCompression mode                         : Lossy\nStream size                              : 12.4 MiB (10%)\n\n","torrent":{"xt":"urn:btih:f23d1c4f86f987bad1d1ec5f3c8baeb31bb4a749","amp;dn":"Big+tits+euro+blonde+hard+fucking%5BVPSR%5D","amp;tr":["udp%3A%2F%2Ftracker.openbittorrent.com%3A80","udp%3A%2F%2Fopen.demonii.com%3A1337","udp%3A%2F%2Ftracker.coppersurfer.tk%3A6969","udp%3A%2F%2Fexodus.desync.com%3A6969"],"infoHash":"f23d1c4f86f987bad1d1ec5f3c8baeb31bb4a749","infoHashBuffer":{"type":"Buffer","data":[242,61,28,79,134,249,135,186,209,209,236,95,60,139,174,179,27,180,167,73]},"announce":[],"urlList":[]}}